<svg xmlns="http://www.w3.org/2000/svg" viewBox="0 0 64 64" id="firewall-protection">
  <path d="M62.62 34.6c-4.2-.15-7.31-2.14-9.18-3.78-.54-.47-1.35-.48-1.89 0-.76.67-1.74 1.39-2.91 2.03V8.5c0-.79-.64-1.43-1.43-1.43H1.47C.68 7.07.04 7.71.04 8.5L0 47.77c0 .79.64 1.43 1.43 1.43l41.02.01c.35.62.76 1.2 1.22 1.74 2.04 2.36 4.81 4.34 8.23 5.87.19.08.39.13.59.13.2 0 .4-.04.59-.13 3.42-1.53 6.18-3.51 8.23-5.87 1.74-2.01 2.7-4.61 2.7-7.34v-7.59a1.44 1.44 0 0 0-1.39-1.42zM40.19 9.93h5.58v5.66h-5.58V9.93zm5.58 8.53v4.45h-12.8v-4.45h12.8zm0 7.31v4.73h-5.11v-4.73h5.11zm-7.98 0v4.73H25.75v-4.73h12.04zM25.75 9.92h11.57v5.66H25.75V9.92zm4.36 8.53v4.45H18.54v-4.45h11.57zm-7.23 7.32v4.73H11.21v-4.73h11.67zM11.22 9.92h11.67v5.66H11.22V9.92zm-8.35 0h5.48v5.66H2.87V9.92zm0 8.53h12.8v4.45H2.87v-4.45zm0 7.31h5.48v4.73H2.87v-4.73zm5.48 20.58H2.87v-5.29h5.48v5.29zm1.43-8.16H2.86v-4.82h12.8v4.82H9.78zm13.1 8.16H11.21v-5.29h11.67v5.29zm1.43-8.16h-5.79v-4.82h11.57v4.82h-5.78c.01 0 .01 0 0 0zm10.87 8.16h-9.44v-5.29h9.44v5.29zm2.87 0v-5.29h2.93v2.56c0 .93.12 1.85.34 2.74l-3.27-.01zm4.31-11.75c-.77.03-1.38.66-1.38 1.43v2.16h-8.01v-4.82h12.8v.66c-1.05.31-2.18.53-3.41.57zm18.77 9.02c0 2.04-.71 3.98-2 5.46-1.65 1.91-3.89 3.54-6.65 4.86-2.76-1.32-4.99-2.95-6.65-4.86-.47-.55-.87-1.16-1.18-1.81-.01-.04-.03-.07-.05-.11-.5-1.09-.77-2.3-.77-3.55v-6.26c3.72-.44 6.62-2.05 8.65-3.61 2.02 1.56 4.93 3.17 8.65 3.61v6.27z"></path>
  <path d="M50.17 42.43a1.437 1.437 0 0 0-2 2.06l2.47 2.4c.27.26.63.41 1 .41h.02c.38-.01.74-.16 1.01-.44l4.37-4.54a1.437 1.437 0 0 0-2.07-1.99l-3.37 3.5-1.43-1.4z"></path>
</svg>
